<svg width="40" height="40" viewBox="0 0 40 40" fill="none" xmlns="http://www.w3.org/2000/svg">
  <rect width="40" height="40" rx="8" fill="#0EA5E9"/>
  <path d="M20 8C13.373 8 8 13.373 8 20C8 26.627 13.373 32 20 32C26.627 32 32 26.627 32 20C32 13.373 26.627 8 20 8ZM25 21H21V25C21 25.552 20.552 26 20 26C19.448 26 19 25.552 19 25V21H15C14.448 21 14 20.552 14 20C14 19.448 14.448 19 15 19H19V15C19 14.448 19.448 14 20 14C20.552 14 21 14.448 21 15V19H25C25.552 19 26 19.448 26 20C26 20.552 25.552 21 25 21Z" fill="white"/>
</svg> 